<svg xmlns="http://www.w3.org/2000/svg" xmlns:xlink="http://www.w3.org/1999/xlink" width="500" zoomAndPan="magnify" viewBox="0 0 375 374.999991" height="500" preserveAspectRatio="xMidYMid meet" version="1.0"><defs><clipPath id="8a271670a0"><path d="M 37.5 233 L 337.5 233 L 337.5 333.75 L 37.5 333.75 Z M 37.5 233 " clip-rule="nonzero"/></clipPath><clipPath id="a840619fb3"><path d="M 106 41.25 L 269 41.25 L 269 204 L 106 204 Z M 106 41.25 " clip-rule="nonzero"/></clipPath></defs><g clip-path="url(#8a271670a0)"><path fill="#231f20" d="M 337.480469 333.75 L 37.574219 333.75 C 37.574219 278.398438 104.710938 233.535156 187.527344 233.535156 C 270.34375 233.535156 337.480469 278.398438 337.480469 333.75 " fill-opacity="1" fill-rule="nonzero"/></g><g clip-path="url(#a840619fb3)"><path fill="#231f20" d="M 268.894531 122.59375 C 268.894531 167.527344 232.464844 203.957031 187.527344 203.957031 C 142.589844 203.957031 106.160156 167.527344 106.160156 122.59375 C 106.160156 77.65625 142.589844 41.226562 187.527344 41.226562 C 232.464844 41.226562 268.894531 77.65625 268.894531 122.59375 " fill-opacity="1" fill-rule="nonzero"/></g></svg>