<svg xmlns="http://www.w3.org/2000/svg" xmlns:xlink="http://www.w3.org/1999/xlink" width="500" zoomAndPan="magnify" viewBox="0 0 375 374.999991" height="500" preserveAspectRatio="xMidYMid meet" version="1.0"><defs><clipPath id="dbfedc5832"><path d="M 18.632812 18.632812 L 356.367188 18.632812 L 356.367188 356.367188 L 18.632812 356.367188 Z M 18.632812 18.632812 " clip-rule="nonzero"/></clipPath><clipPath id="780c5de93c"><path d="M 187.5 18.632812 C 94.238281 18.632812 18.632812 94.238281 18.632812 187.5 C 18.632812 280.761719 94.238281 356.367188 187.5 356.367188 C 280.761719 356.367188 356.367188 280.761719 356.367188 187.5 C 356.367188 94.238281 280.761719 18.632812 187.5 18.632812 " clip-rule="nonzero"/></clipPath><clipPath id="a586c9856c"><path d="M 75.230469 75.230469 L 299.480469 75.230469 L 299.480469 299.480469 L 75.230469 299.480469 Z M 75.230469 75.230469 " clip-rule="nonzero"/></clipPath></defs><g clip-path="url(#dbfedc5832)"><g clip-path="url(#780c5de93c)"><path fill="#88909a" d="M 18.632812 18.632812 L 356.367188 18.632812 L 356.367188 356.367188 L 18.632812 356.367188 Z M 18.632812 18.632812 " fill-opacity="1" fill-rule="nonzero"/></g></g><g clip-path="url(#a586c9856c)"><path fill="#15202d" d="M 97.65625 75.230469 C 85.265625 75.230469 75.230469 85.265625 75.230469 97.65625 L 75.230469 232.207031 C 75.230469 244.597656 85.265625 254.632812 97.65625 254.632812 L 232.207031 254.632812 C 244.597656 254.632812 254.632812 244.597656 254.632812 232.207031 L 254.632812 97.65625 C 254.632812 85.265625 244.597656 75.230469 232.207031 75.230469 Z M 209.78125 120.082031 C 212.652344 120.082031 215.523438 121.179688 217.710938 123.367188 C 222.082031 127.738281 222.082031 134.847656 217.710938 139.222656 L 161.648438 195.285156 C 157.273438 199.667969 150.164062 199.667969 145.792969 195.285156 L 112.15625 161.648438 C 107.78125 157.273438 107.78125 150.164062 112.15625 145.792969 C 116.527344 141.417969 123.636719 141.417969 128.011719 145.792969 L 153.71875 171.503906 L 201.855469 123.367188 C 204.042969 121.179688 206.910156 120.082031 209.78125 120.082031 Z M 288.269531 120.082031 C 282.082031 120.082031 277.058594 125.105469 277.058594 131.292969 L 277.058594 277.058594 L 131.292969 277.058594 C 125.105469 277.058594 120.082031 282.082031 120.082031 288.269531 C 120.082031 294.457031 125.105469 299.480469 131.292969 299.480469 L 277.058594 299.480469 C 289.445312 299.480469 299.480469 289.445312 299.480469 277.058594 L 299.480469 131.292969 C 299.480469 125.105469 294.460938 120.082031 288.269531 120.082031 Z M 288.269531 120.082031 " fill-opacity="1" fill-rule="nonzero"/></g></svg>