<svg xmlns="http://www.w3.org/2000/svg" xmlns:xlink="http://www.w3.org/1999/xlink" width="500" zoomAndPan="magnify" viewBox="0 0 375 374.999991" height="500" preserveAspectRatio="xMidYMid meet" version="1.0"><defs><clipPath id="331530b0c0"><path d="M 18.75 18.75 L 356.25 18.75 L 356.25 356.25 L 18.75 356.25 Z M 18.75 18.75 " clip-rule="nonzero"/></clipPath></defs><path fill="#88909a" d="M 215.617188 142.347656 C 208.960938 142.347656 203.566406 147.742188 203.566406 154.398438 L 203.566406 239.554688 C 203.566406 246.210938 208.960938 251.605469 215.617188 251.605469 C 222.273438 251.605469 227.667969 246.210938 227.667969 239.554688 L 227.667969 154.398438 C 227.667969 147.742188 222.273438 142.347656 215.617188 142.347656 Z M 215.617188 142.347656 " fill-opacity="1" fill-rule="nonzero"/><g clip-path="url(#331530b0c0)"><path fill="#88909a" d="M 187.5 18.75 C 94.300781 18.75 18.75 94.300781 18.75 187.5 C 18.75 280.699219 94.300781 356.25 187.5 356.25 C 280.699219 356.25 356.25 280.699219 356.25 187.5 C 356.25 94.300781 280.699219 18.75 187.5 18.75 Z M 259.804688 126.277344 L 259.804688 259.636719 C 259.804688 272.949219 249.011719 283.738281 235.703125 283.738281 L 139.296875 283.738281 C 125.988281 283.738281 115.195312 272.949219 115.195312 259.636719 L 115.195312 126.277344 C 106.324219 126.277344 99.128906 119.085938 99.128906 110.210938 C 99.128906 101.335938 106.324219 94.144531 115.195312 94.144531 L 148.023438 94.144531 C 150.152344 94.144531 152.195312 93.296875 153.703125 91.789062 L 165.0625 80.429688 C 166.570312 78.921875 168.613281 78.074219 170.746094 78.074219 L 204.257812 78.074219 C 206.390625 78.074219 208.433594 78.921875 209.9375 80.429688 L 221.300781 91.789062 C 222.808594 93.296875 224.851562 94.144531 226.980469 94.144531 L 259.804688 94.144531 C 268.679688 94.144531 275.871094 101.335938 275.871094 110.210938 C 275.871094 119.085938 268.675781 126.277344 259.804688 126.277344 Z M 259.804688 126.277344 " fill-opacity="1" fill-rule="nonzero"/></g><path fill="#88909a" d="M 159.382812 142.347656 C 152.726562 142.347656 147.332031 147.742188 147.332031 154.398438 L 147.332031 239.554688 C 147.332031 246.210938 152.726562 251.605469 159.382812 251.605469 C 166.035156 251.605469 171.433594 246.210938 171.433594 239.554688 L 171.433594 154.398438 C 171.433594 147.742188 166.035156 142.347656 159.382812 142.347656 Z M 159.382812 142.347656 " fill-opacity="1" fill-rule="nonzero"/></svg>