<svg xmlns="http://www.w3.org/2000/svg" xmlns:xlink="http://www.w3.org/1999/xlink" width="500" zoomAndPan="magnify" viewBox="0 0 375 374.999991" height="500" preserveAspectRatio="xMidYMid meet" version="1.0"><defs><clipPath id="eb1cd9a1ed"><path d="M 18.75 18.773438 L 356.242188 18.773438 L 356.242188 356.226562 L 18.75 356.226562 Z M 18.75 18.773438 " clip-rule="nonzero"/></clipPath><clipPath id="af12d07611"><path d="M 100.351562 302.488281 L 274.671875 302.488281 L 274.671875 356.226562 L 100.351562 356.226562 Z M 100.351562 302.488281 " clip-rule="nonzero"/></clipPath><clipPath id="7329dd6cdf"><path d="M 18.75 178 L 53 178 L 53 213 L 18.75 213 Z M 18.75 178 " clip-rule="nonzero"/></clipPath><clipPath id="87e437a638"><path d="M 321.808594 187.3125 L 356.242188 187.3125 L 356.242188 221.773438 L 321.808594 221.773438 Z M 321.808594 187.3125 " clip-rule="nonzero"/></clipPath></defs><g clip-path="url(#eb1cd9a1ed)"><path fill="#50c4b7" d="M 356.242188 187.5 C 356.242188 248.847656 323.503906 302.546875 274.542969 332.082031 C 249.132812 347.410156 219.355469 356.226562 187.515625 356.226562 C 155.679688 356.226562 125.898438 347.40625 100.492188 332.078125 C 99.648438 331.574219 98.816406 331.0625 97.984375 330.539062 L 30.980469 352.242188 L 49.742188 284.921875 C 30.246094 257.402344 18.789062 223.789062 18.789062 187.5 C 18.789062 94.316406 94.332031 18.773438 187.515625 18.773438 C 280.703125 18.773438 356.242188 94.316406 356.242188 187.5 " fill-opacity="1" fill-rule="nonzero"/></g><g clip-path="url(#af12d07611)"><path fill="#d0e5e0" d="M 274.542969 332.082031 C 249.132812 347.410156 219.355469 356.226562 187.515625 356.226562 C 155.679688 356.226562 125.898438 347.40625 100.492188 332.078125 C 124.636719 313.648438 154.796875 302.703125 187.515625 302.703125 C 220.234375 302.703125 250.398438 313.648438 274.542969 332.082031 " fill-opacity="1" fill-rule="nonzero"/></g><path fill="#b0ccc5" d="M 222.90625 263.265625 L 222.90625 307.097656 C 222.90625 310.25 207.058594 312.804688 187.515625 312.804688 C 167.96875 312.804688 152.128906 310.25 152.128906 307.097656 L 152.128906 263.265625 L 222.90625 263.265625 " fill-opacity="1" fill-rule="nonzero"/><g clip-path="url(#7329dd6cdf)"><path fill="#2b2e3a" d="M 52.988281 195.457031 C 52.988281 204.910156 45.324219 212.574219 35.871094 212.574219 C 26.414062 212.574219 18.75 204.910156 18.75 195.457031 C 18.75 186 26.414062 178.335938 35.871094 178.335938 C 45.324219 178.335938 52.988281 186 52.988281 195.457031 " fill-opacity="1" fill-rule="nonzero"/></g><path fill="#2b2e3a" d="M 73.375 147.640625 L 48.945312 147.640625 L 48.945312 92.632812 C 55.429688 91.1875 60.261719 85.574219 60.261719 78.871094 C 60.261719 71.066406 53.714844 64.742188 45.640625 64.742188 C 37.566406 64.742188 31.019531 71.066406 31.019531 78.871094 C 31.019531 85.574219 35.855469 91.1875 42.335938 92.632812 L 42.335938 147.640625 L 38.351562 147.640625 C 34.28125 147.640625 30.980469 150.941406 30.980469 155.011719 L 30.980469 236.117188 C 30.980469 240.191406 34.28125 243.492188 38.351562 243.492188 L 73.375 243.492188 C 77.445312 243.492188 80.75 240.191406 80.75 236.117188 L 80.75 155.011719 C 80.75 150.941406 77.445312 147.640625 73.375 147.640625 " fill-opacity="1" fill-rule="nonzero"/><path fill="#2b2e3a" d="M 64.527344 79.441406 C 64.527344 89.277344 56.550781 97.25 46.714844 97.25 C 36.878906 97.25 28.902344 89.277344 28.902344 79.441406 C 28.902344 69.601562 36.878906 61.625 46.714844 61.625 C 56.550781 61.625 64.527344 69.601562 64.527344 79.441406 " fill-opacity="1" fill-rule="nonzero"/><g clip-path="url(#87e437a638)"><path fill="#2b2e3a" d="M 321.964844 204.621094 C 321.964844 214.074219 329.628906 221.738281 339.082031 221.738281 C 348.539062 221.738281 356.203125 214.074219 356.203125 204.621094 C 356.203125 195.164062 348.539062 187.5 339.082031 187.5 C 329.628906 187.5 321.964844 195.164062 321.964844 204.621094 " fill-opacity="1" fill-rule="nonzero"/></g><path fill="#2b2e3a" d="M 301.578125 156.804688 L 326.007812 156.804688 L 326.007812 101.796875 C 319.523438 100.351562 314.691406 94.738281 314.691406 88.035156 C 314.691406 80.230469 321.238281 73.90625 329.308594 73.90625 C 337.386719 73.90625 343.933594 80.230469 343.933594 88.035156 C 343.933594 94.738281 339.097656 100.351562 332.617188 101.796875 L 332.617188 156.804688 L 336.601562 156.804688 C 340.671875 156.804688 343.972656 160.105469 343.972656 164.175781 L 343.972656 245.285156 C 343.972656 249.355469 340.671875 252.652344 336.601562 252.652344 L 301.578125 252.652344 C 297.503906 252.652344 294.203125 249.355469 294.203125 245.285156 L 294.203125 164.175781 C 294.203125 160.105469 297.503906 156.804688 301.578125 156.804688 " fill-opacity="1" fill-rule="nonzero"/><path fill="#2b2e3a" d="M 310.425781 88.601562 C 310.425781 98.4375 318.402344 106.414062 328.238281 106.414062 C 338.074219 106.414062 346.046875 98.4375 346.046875 88.601562 C 346.046875 78.765625 338.074219 70.789062 328.238281 70.789062 C 318.402344 70.789062 310.425781 78.765625 310.425781 88.601562 " fill-opacity="1" fill-rule="nonzero"/><path fill="#d0e5e0" d="M 187.777344 70.789062 C 186.96875 70.789062 186.164062 70.796875 185.363281 70.808594 C 117.164062 71.691406 61.773438 109.914062 57.714844 158.003906 L 57.46875 158.011719 C 57.46875 158.011719 40.046875 239.128906 57.46875 256.546875 C 103.296875 302.378906 275.988281 306.960938 316.726562 256.546875 C 333.429688 235.871094 316.726562 150.226562 316.726562 150.226562 C 307.585938 105.300781 253.339844 70.789062 187.777344 70.789062 " fill-opacity="1" fill-rule="nonzero"/><path fill="#1c3855" d="M 187.617188 102.585938 C 186.988281 102.585938 186.359375 102.59375 185.730469 102.597656 C 132.429688 103.289062 89.136719 133.164062 85.960938 170.75 L 85.769531 170.757812 C 85.769531 170.757812 72.15625 234.15625 85.769531 247.773438 C 121.589844 283.589844 256.5625 287.171875 288.402344 247.773438 C 301.460938 231.613281 288.402344 164.671875 288.402344 164.671875 C 281.257812 129.558594 238.859375 102.585938 187.617188 102.585938 " fill-opacity="1" fill-rule="nonzero"/><path fill="#e4cf18" d="M 141.285156 181.722656 C 141.285156 190.964844 133.792969 198.453125 124.554688 198.453125 C 115.3125 198.453125 107.824219 190.964844 107.824219 181.722656 C 107.824219 172.484375 115.3125 164.996094 124.554688 164.996094 C 133.792969 164.996094 141.285156 172.484375 141.285156 181.722656 " fill-opacity="1" fill-rule="nonzero"/><path fill="#e4cf18" d="M 266.050781 181.722656 C 266.050781 190.964844 258.5625 198.453125 249.320312 198.453125 C 240.082031 198.453125 232.589844 190.964844 232.589844 181.722656 C 232.589844 172.484375 240.082031 164.996094 249.320312 164.996094 C 258.5625 164.996094 266.050781 172.484375 266.050781 181.722656 " fill-opacity="1" fill-rule="nonzero"/><path fill="#2b2e3a" d="M 324.179688 203.375 C 322.8125 178.476562 317.058594 152.738281 317.058594 152.738281 C 307.9375 113.59375 253.796875 83.527344 188.355469 83.527344 C 187.550781 83.527344 186.746094 83.53125 185.945312 83.542969 C 117.878906 84.3125 62.589844 117.613281 58.535156 159.515625 L 58.289062 159.523438 C 58.289062 159.523438 52.425781 183.371094 50.914062 206.339844 C 48.617188 180.0625 58.289062 140.738281 58.289062 140.738281 L 58.535156 140.734375 C 62.589844 98.832031 117.878906 65.53125 185.945312 64.753906 C 186.746094 64.75 187.550781 64.742188 188.355469 64.742188 C 253.796875 64.742188 307.9375 94.8125 317.058594 133.957031 C 317.058594 133.957031 326.191406 174.828125 324.179688 203.375 " fill-opacity="1" fill-rule="nonzero"/><path fill="#e4cf18" d="M 161.585938 225.0625 C 161.535156 225.726562 161.5 226.394531 161.5 227.070312 C 161.5 241.117188 172.890625 252.503906 186.9375 252.503906 C 200.984375 252.503906 212.375 241.117188 212.375 227.070312 C 212.375 226.394531 212.339844 225.726562 212.289062 225.0625 L 161.585938 225.0625 " fill-opacity="1" fill-rule="nonzero"/><path fill="#d3d3d2" d="M 121.261719 240.949219 C 92.683594 240.554688 64.664062 229.285156 43.804688 209.738281 C 40.746094 206.875 36.128906 211.46875 39.195312 214.34375 C 61.316406 235.070312 90.945312 247.046875 121.261719 247.464844 C 125.457031 247.523438 125.460938 241.007812 121.261719 240.949219 " fill-opacity="1" fill-rule="nonzero"/><path fill="#2b2e3a" d="M 141.105469 242.875 C 141.105469 252.710938 133.132812 260.683594 123.292969 260.683594 C 113.457031 260.683594 105.484375 252.710938 105.484375 242.875 C 105.484375 233.035156 113.457031 225.0625 123.292969 225.0625 C 133.132812 225.0625 141.105469 233.035156 141.105469 242.875 " fill-opacity="1" fill-rule="nonzero"/><path fill="#b0ccc5" d="M 222.90625 307.097656 C 222.90625 310.25 207.058594 312.804688 187.515625 312.804688 C 167.96875 312.804688 152.128906 310.25 152.128906 307.097656 C 152.128906 303.945312 167.96875 301.386719 187.515625 301.386719 C 207.058594 301.386719 222.90625 303.945312 222.90625 307.097656 " fill-opacity="1" fill-rule="nonzero"/></svg>