<svg xmlns="http://www.w3.org/2000/svg" xmlns:xlink="http://www.w3.org/1999/xlink" width="500" zoomAndPan="magnify" viewBox="0 0 375 374.999991" height="500" preserveAspectRatio="xMidYMid meet" version="1.0"><defs><clipPath id="fbf8eb4131"><path d="M 37.5 37.5 L 337.5 37.5 L 337.5 337.5 L 37.5 337.5 Z M 37.5 37.5 " clip-rule="nonzero"/></clipPath></defs><g clip-path="url(#fbf8eb4131)"><path fill="#000000" d="M 67.5 37.5 C 50.925781 37.5 37.5 50.925781 37.5 67.5 L 37.5 247.5 C 37.5 264.074219 50.925781 277.5 67.5 277.5 L 247.5 277.5 C 264.074219 277.5 277.5 264.074219 277.5 247.5 L 277.5 67.5 C 277.5 50.925781 264.074219 37.5 247.5 37.5 Z M 217.5 97.5 C 221.339844 97.5 225.179688 98.96875 228.105469 101.894531 C 233.957031 107.746094 233.957031 117.253906 228.105469 123.105469 L 153.105469 198.105469 C 147.253906 203.96875 137.746094 203.96875 131.894531 198.105469 L 86.894531 153.105469 C 81.042969 147.253906 81.042969 137.746094 86.894531 131.894531 C 92.746094 126.042969 102.253906 126.042969 108.105469 131.894531 L 142.5 166.289062 L 206.894531 101.894531 C 209.820312 98.96875 213.660156 97.5 217.5 97.5 Z M 322.5 97.5 C 314.21875 97.5 307.5 104.21875 307.5 112.5 L 307.5 307.5 L 112.5 307.5 C 104.21875 307.5 97.5 314.21875 97.5 322.5 C 97.5 330.78125 104.21875 337.5 112.5 337.5 L 307.5 337.5 C 324.074219 337.5 337.5 324.074219 337.5 307.5 L 337.5 112.5 C 337.5 104.21875 330.78125 97.5 322.5 97.5 Z M 322.5 97.5 " fill-opacity="1" fill-rule="nonzero"/></g></svg>