<svg xmlns="http://www.w3.org/2000/svg" xmlns:xlink="http://www.w3.org/1999/xlink" width="500" zoomAndPan="magnify" viewBox="0 0 375 374.999991" height="500" preserveAspectRatio="xMidYMid meet" version="1.0"><defs><clipPath id="58fed2cdb7"><path d="M 20.027344 20.027344 L 355.277344 20.027344 L 355.277344 355.277344 L 20.027344 355.277344 Z M 20.027344 20.027344 " clip-rule="nonzero"/></clipPath></defs><g clip-path="url(#58fed2cdb7)"><path fill="#eeeded" d="M 355.277344 187.652344 C 355.277344 280.226562 280.226562 355.277344 187.652344 355.277344 C 95.078125 355.277344 20.027344 280.226562 20.027344 187.652344 C 20.027344 95.078125 95.078125 20.027344 187.652344 20.027344 C 280.226562 20.027344 355.277344 95.078125 355.277344 187.652344 " fill-opacity="1" fill-rule="nonzero"/></g><path fill="#62cbd3" d="M 141.117188 298.988281 C 140.148438 298.988281 139.179688 298.9375 138.210938 298.828125 C 130.1875 297.945312 122.992188 293.472656 118.660156 286.664062 L 70.398438 210.824219 C 62.507812 198.417969 66.164062 181.972656 78.566406 174.078125 C 90.964844 166.183594 107.414062 169.84375 115.304688 182.242188 L 145.757812 230.09375 L 263.636719 112.214844 C 274.027344 101.824219 290.878906 101.824219 301.277344 112.214844 C 311.667969 122.605469 311.667969 139.460938 301.273438 149.851562 L 159.933594 291.191406 C 154.914062 296.207031 148.136719 298.988281 141.117188 298.988281 " fill-opacity="1" fill-rule="nonzero"/></svg>