<svg id="Layer_1" data-name="Layer 1" xmlns="http://www.w3.org/2000/svg" viewBox="0 0 512 512"><defs><style>.cls-1{fill:#adb8bc;}.cls-2{fill:#ffc84d;}.cls-3{fill:#ffb232;}</style></defs><title>comet-flat</title><path class="cls-1" d="M72.33,476.78a10.79,10.79,0,0,1-3.38-.55,10.67,10.67,0,0,1-6.74-13.49A379,379,0,0,1,137.32,332a10.67,10.67,0,0,1,16,14.07A357.83,357.83,0,0,0,82.44,469.48,10.67,10.67,0,0,1,72.33,476.78ZM10.67,449.31a10.68,10.68,0,0,1-10-14.47A414.74,414.74,0,0,1,44,351.41a10.67,10.67,0,1,1,17.7,11.91,393.28,393.28,0,0,0-41.07,79.12A10.67,10.67,0,0,1,10.67,449.31Zm64-110.78a10.67,10.67,0,0,1-8.27-17.4A413.32,413.32,0,0,1,279.16,182.23a10.66,10.66,0,1,1,5.63,20.57A392.11,392.11,0,0,0,83,334.6,10.65,10.65,0,0,1,74.72,338.54Zm96.49-15.47a10.67,10.67,0,0,1-7.28-18.46,379.35,379.35,0,0,1,104.7-69.46,10.67,10.67,0,0,1,8.68,19.49,358,358,0,0,0-98.82,65.57A10.62,10.62,0,0,1,171.2,323.07ZM10.66,319.76a10.67,10.67,0,0,1-8.33-17.33A455.38,455.38,0,0,1,148.4,182.7a10.67,10.67,0,1,1,9.77,19A433.71,433.71,0,0,0,19,315.76,10.65,10.65,0,0,1,10.66,319.76Zm0-85.6a10.67,10.67,0,0,1-7-18.74c12-10.39,25-20.48,38.54-30a10.67,10.67,0,0,1,12.26,17.46c-13,9.1-25.36,18.76-36.87,28.68A10.62,10.62,0,0,1,10.67,234.16Zm175.57-46.6a10.67,10.67,0,0,1-4.1-20.52,444.52,444.52,0,0,1,67.11-21.81,10.67,10.67,0,1,1,5,20.75,423.17,423.17,0,0,0-63.88,20.76A10.61,10.61,0,0,1,186.25,187.56ZM78.89,185.2a10.67,10.67,0,0,1-5.44-19.85A481,481,0,0,1,235.6,105.42a10.67,10.67,0,1,1,3.69,21,459.56,459.56,0,0,0-155,57.29A10.65,10.65,0,0,1,78.89,185.2Z"/><path class="cls-2" d="M509.09,126.1,464.95,184l.19,1L478,249.1a14,14,0,0,1-.66,7.95,14.24,14.24,0,0,1-19.87,7.38L394,231l-58.33,32.4a14.19,14.19,0,0,1-20.77-15.19L327.57,185l.19-1L280.6,126.48a14.18,14.18,0,0,1,10.93-23.18h59.89L381.69,43a14.25,14.25,0,0,1,25.45.14l29.42,60.17h61.21a14.23,14.23,0,0,1,11.31,22.8Z"/><path class="cls-3" d="M319.62,261.83a14,14,0,0,0,16,1.61L394,231v-71ZM394,160.07,278.37,112.24a13.93,13.93,0,0,0,2.22,14.24L327.76,184l-.19,1ZM381.69,43,351.41,103.3h-1.28L394,160.07V35.23A14,14,0,0,0,381.69,43ZM497.78,103.3H437.28L394,160.07l116.75-48.3A14,14,0,0,0,497.78,103.3ZM478,249.1,465.14,185,394,160.07l78.48,103.27a14.22,14.22,0,0,0,4.87-6.29A14,14,0,0,0,478,249.1Z"/></svg>